<?xml version="1.0" encoding="utf-8"?>
<!-- Generator: Adobe Illustrator 26.0.2, SVG Export Plug-In . SVG Version: 6.00 Build 0)  -->
<svg version="1.1" id="Layer_1" xmlns="http://www.w3.org/2000/svg" xmlns:xlink="http://www.w3.org/1999/xlink" x="0px" y="0px"
	 viewBox="0 0 750 750" style="enable-background:new 0 0 750 750;" xml:space="preserve">
<g>
	<path d="M379.4,403.7c6.3-5.2,12.2-10,17.8-15.1c1-0.9,1.1-3,1.2-4.5c0.3-5.9,1.1-11.7,6-15.8c1.1-0.9,3-1,4.5-1.5
		c0.3,1.5,0.8,3.1,0.7,4.6c0,1.1-0.5,2.4-1.2,3.3c-4.3,5.2-3.3,10.7-1.7,16.5c1,3.6,1.2,7.4,1.9,12.8c3.3-3.3,6.2-5.7,8.5-8.5
		c4.8-5.7,8.9-12.1,14.1-17.4c6.2-6.2,13.4-6.2,18.9-2.2c5-1,8.9-1.8,12.8-2.6c0.2,0.5,0.4,1,0.6,1.5c-7,13.2-16.5,24.9-22.4,38.8
		c7.9-3.2,13.7-8.5,18.5-15.3c5-7.2,10.1-14.5,16.2-20.7c5.8-5.9,13.3-5.6,19.7-0.3c2.1-2.9,4.3-5.8,6.4-8.8
		c5.9-8.5,11.8-17,17.8-25.4c4.5-6.4,4.5-6.3,13.9-5.2c-16.7,25.2-33.2,50-49.7,74.8c0.3,0.4,0.7,0.8,1,1.2c1.1-0.3,2.4-0.4,3.3-1.1
		c6.4-4.3,12.2-9,16.1-16.1c4.9-8.9,11.4-16.5,20.4-21.4c3.6-1.9,7.8-3.3,11.8-3.6c6.2-0.4,9.2,4.8,6,10.1
		c-4.7,7.9-11.2,13.5-20.9,14.6c-8.3,0.9-11,3.2-12.8,11.2c-0.4,1.7-0.1,4.4,1,5.4c1.1,1,3.9,1,5.4,0.3c8.8-4.2,16.4-10.3,22-18.3
		c3.4-4.9,6.6-10,9.3-15.4c2.6-5.3,6.5-5.9,12-4.5c-6.8,13.2-16,24.8-21.6,38.5c6.3-0.7,10.9-3.9,14.1-8.6c6-8.4,12-16.9,17.2-25.8
		c3.1-5.2,6.8-5.3,12.4-4.2c-7.7,13-15.2,25.6-22.7,38.2c0.4,0.5,0.9,1,1.3,1.4c1.6-0.7,3.7-0.9,4.8-2.1
		c8.6-9.3,17.1-18.7,25.5-28.2c0.8-0.9,0.4-2.7,0.8-4c1-3,1.8-6.2,3.4-8.9c0.6-1.1,3.1-1.2,4.8-1.7c0.5,1.6,1.1,3.2,1.4,4.8
		c0.1,0.9-0.4,1.9-0.8,3.6c1.7-0.4,2.9-0.9,4-0.9c2.6,0,6.1-0.8,7.6,0.5c2.8,2.5,0.4,5.5-1.4,7.9c-4.9,6.5-9.8,13-14.7,19.6
		c-0.5,0.7-1.2,1.3-1.5,2c-0.7,2.1-1.1,4.3-1.7,6.4c2.5-0.2,5.6,0.4,7.4-0.9c3.4-2.3,6-5.7,8.9-8.6c4-4,7.9-8.1,11.8-12.2
		c4.5-4.7,8.9-9.1,9.7-16.3c0.3-2.8,2.9-5.4,4.9-7.8c0.7-0.9,2.6-0.8,4-1.2c0.3,1.4,0.9,2.7,0.8,4c-0.2,1.6-0.6,3.4-1.6,4.7
		c-3.6,4.4-3,9-1.6,14.1c1.1,4.1,1.4,8.5,2.3,14.1c7.9-6.4,15.6-12.6,23.3-18.9c0.2,0.1,0.3,0.2,0.5,0.3c-0.5,0.8-0.9,1.8-1.6,2.4
		c-5.6,4.7-11.2,9.4-16.8,14.1c-3.9,3.3-7.5,7-11.7,9.9c-3.8,2.7-8,5.4-12.5,6.5c-5.8,1.5-10.8-1.1-13.3-6.5
		c-4.4,2.1-8.4,4.8-12.9,5.8c-2.7,0.6-7.6-0.5-8.7-2.4c-1.3-2.3-0.6-6.9,0.9-9.5c3.3-5.8,7.6-10.9,11.5-16.3c1.1-1.6,2.1-3.3,3.2-5
		c-3.4-2.8-5.4-1.1-7.5,1.2c-7.6,8.4-15.3,16.7-22.9,25.1c-1.2,1.3-2.5,2.7-3.9,3.8c-6.6,5.4-12.1,3.5-14.3-4.6
		c-4.5,2.2-9,5-13.8,6.5c-6.9,2.1-9.5-0.4-9-8.3c-1.7,1.1-3,1.9-4.2,2.8c-2.4,1.6-4.6,3.4-7.1,4.7c-9.5,5-14.5,2.7-17.2-8.2
		c-3.4,2.7-6.5,5.3-9.9,7.7c-7,4.9-10.1,3.8-12.4-3.5c-4.2,2-8.4,5-12.9,6c-5.3,1.2-7.6-1.5-9.7-9.1c-3,2.3-5.8,4.5-8.8,6.6
		c-7.3,5.1-10.8,3.7-12.1-5.5c-5.1,5.5-10.4,11.1-18.4,7.1c-5.3-2.6-4-7.8-3-14.2c-3.5,2.8-6.3,4.5-8.3,6.8
		c-3.8,4.3-7.6,8.5-13.7,9.3c-7.6,1.1-11-0.9-14.9-7.9c-5,2.7-9.7,6.2-15,7.7c-6.1,1.8-11.5-0.7-14.3-6.9
		c-14.8,8.5-16.1,8.4-17.8-1.9c-5,5.6-10.5,11.4-18.4,6.8c-6.6-3.9-3-10.3-1.4-16c-3.3-1.6-5.6-1.3-7.9,2c-2.9,4-6,8.2-9.9,11.1
		c-3.1,2.3-7.5,3.6-11.5,4.1c-6.3,0.8-8-0.9-10.5-8.1c-1.7,1.2-3.1,2.4-4.7,3.3c-3.3,1.8-6.6,4-10.2,5.1c-2,0.6-5.4,0.2-6.7-1.2
		c-1.3-1.4-1.8-5.1-0.9-6.8c4.4-7.8,9.4-15.3,14.3-22.8c1.8-2.8,3.9-5.5,5.9-8.3c-0.4-0.5-0.8-1-1.2-1.5c-2,1.2-4.4,1.9-5.8,3.6
		c-9.3,10.4-18.7,20.8-27.5,31.6c-3.4,4.3-6.8,5-12.3,3.5c8.2-12.6,16.1-24.8,24-37c-0.3-0.4-0.7-0.9-1-1.3
		c-1.6,0.4-3.5,0.4-4.6,1.4c-6.2,5.5-12.5,10.8-18.1,16.9c-4.5,4.9-8.3,10.5-11.7,16.2c-3,5-6.7,4.9-12.2,3.7
		c2.6-4.2,4.9-7.8,7.2-11.4c5.2-8.2,10.8-16.1,15.4-24.5c3.2-5.9,7.3-7.6,13.7-5.9c-0.5,1.4-1,2.9-1.8,4.9c3.9-1.7,7.2-3.4,10.8-4.6
		c7.1-2.4,9.6-1,11.9,6.1c2.3-1.4,4.4-3,6.7-4.1c2.5-1.2,5.2-2.4,7.9-2.6c2-0.1,5.2,0.8,6,2.2c0.9,1.7,0.5,5-0.6,6.8
		c-4.7,7.3-10,14.1-14.9,21.3c-1.4,2.1-2,4.8-2.9,7.2c0.5,0.4,1,0.8,1.5,1.2c2.1-1.1,4.6-1.8,6.2-3.4c5.4-5.8,11-11.7,15.5-18.1
		c12.1-17,23.8-34.2,35.3-51.6c2.8-4.3,5.9-5.2,11.2-3.6c-1,1.7-1.8,3.2-2.8,4.6c-13.9,20.6-27.8,41.2-41.7,61.7
		c-1.1,1.7-2.5,3.2-3.2,5c-0.6,1.4-1.1,3.5-0.4,4.4c0.8,1,3.1,1.8,4.4,1.4c3-0.9,6.1-2.1,8.4-4c2.8-2.3,5.1-5.3,7.1-8.3
		c0.8-1.3,0.8-3.8,0.1-5.2c-3-6.5-1.7-15.8,4.1-19.9c2.1-1.6,6.1-2.2,8.5-1.4c3.5,1.2,3.4,5.2,2.2,8.2c-1.6,4-3.8,7.7-5.8,11.5
		c3.3,2.7,5.1,1.4,7.1-1.3c4.1-5.2,8.1-10.6,13-15.1c6-5.5,13.3-5.3,18-1.3c4.6-1,8.6-1.9,12.5-2.8c0.4,0.5,0.7,1.1,1.1,1.6
		c-7.8,12.6-15.7,25.3-23.5,37.9c0.5,0.5,1.1,1,1.6,1.5c2.8-1.8,5.8-3.4,8.3-5.6c5.5-5,10.8-10.3,16-15.7c4.3-4.4,8.2-8.8,8.9-15.6
		c0.4-3.5,3.7-6.8,6-9.9c0.5-0.7,2.7-0.9,3.5-0.4c0.7,0.5,0.9,2.3,0.8,3.5c-0.2,1.6-0.6,3.5-1.6,4.7c-4.1,4.7-3,9.8-1.7,15
		C378,394.1,378.5,398.2,379.4,403.7z M448.2,380.2c-0.4-0.8-0.6-2.3-1.5-3c-0.7-0.5-2.3-0.2-3.2,0.3c-1.6,0.9-3.3,1.9-4.3,3.4
		c-6.3,9-12.6,18-18.6,27.2c-0.9,1.4-0.4,3.6-0.6,5.4c2.2-0.2,4.4-0.1,6.4-0.7c1.1-0.3,2.2-1.5,3-2.6c5.8-8.6,11.5-17.2,17.1-25.8
		C447.2,383.4,447.5,382,448.2,380.2z M343.6,378.6c-1.8-0.5-3.6-1.7-4.6-1.3c-2.2,1-4.3,2.6-5.7,4.6c-5.5,7.5-10.9,15.1-16,22.9
		c-1.6,2.5-5.4,6-1.9,8.7c3.6,2.8,6.6-1,9.2-3.6c0.1-0.1,0.2-0.2,0.3-0.4c5.3-7.9,10.6-15.7,15.7-23.7
		C341.8,384.1,342.3,381.9,343.6,378.6z M491.8,380c-0.3-0.6-0.6-2.2-1.5-2.7c-0.9-0.4-2.9-0.2-3.6,0.5c-4,4.2-8,8.4-11.4,13.1
		c-4.2,5.8-7.8,11.9-11.5,18.1c-0.7,1.1-0.7,3.6,0.1,4.4c0.9,0.8,3,0.6,4.5,0.4c1.1-0.2,2.3-0.9,2.9-1.8
		c6.6-9.7,13.1-19.5,19.6-29.3C491.4,382.1,491.4,381.4,491.8,380z M627.6,386.3c-4.8,5.2-8.9,9.7-12.8,13.9
		c2.9,1.9,5.2,3.4,7.5,4.9c2.3,1.6,3.9,1.2,5.1-1.4C629.9,398.3,629.7,392.9,627.6,386.3z M516.8,393.5
		c10.8-1.2,21.6-11.2,21.4-19.4C529.3,378.3,524.1,386.1,516.8,393.5z M368.9,388.3c-4.2,4.4-7.8,8.2-11.6,12.2
		c2.2,1.7,4,3.1,5.9,4.5c2.5,1.9,4.2,1.1,5.4-1.6C370.7,398.8,370.9,394.1,368.9,388.3z M386.5,400.5c2.4,1.7,4.4,3.5,6.7,4.6
		c1.1,0.5,3.7,0.3,4.1-0.4c2.3-4.2,4-8.7,1.4-14.2C394.5,394,390.6,397.2,386.5,400.5z M624,408.9c-2.9-1.3-5.3-3-8-3.6
		c-1.7-0.3-5.3,0.8-5.4,1.6c-0.3,2.1,0.2,5.1,1.6,6.5C615.9,417.2,620.3,415.5,624,408.9z M365.1,408.8c-3-1.3-5.6-3-8.4-3.5
		c-1.6-0.3-4.6,1-5.2,2.3c-0.6,1.4,0.2,4.3,1.5,5.6C356.7,417.2,361.5,415.6,365.1,408.8z M394.5,408.8c-3-1.3-5.9-2.9-8.9-3.7
		c-1.3-0.3-3.7,0.8-4.4,2c-0.7,1.2-0.5,3.6,0.3,4.9C384.8,417.4,390.8,416.1,394.5,408.8z M302.8,392.9c2.4-4.6,4.7-8.4,6.5-12.4
		c0.5-1-0.1-3-0.9-4c-0.5-0.6-2.6-0.3-3.6,0.2C299.8,379.4,298.5,387.1,302.8,392.9z"/>
	<path d="M365.8,303.3c17.4,8.8,33.5,22.4,55.6,20.8c0,0.5,0.1,1,0.1,1.5c-4,0.9-8,2-12.1,2.5c-8.4,1-16.7-0.1-24.4-3.6
		c-9.5-4.4-18.9-9.1-28.5-13.3c-2.1-0.9-5.2-1.1-7.3-0.3c-11.6,4.1-23.4,6.7-35.7,5.2c-3.9-0.5-7.9-1.6-11.4-3.4
		c-9.2-4.9-9.6-16.8-0.8-22.5c8.1-5.3,17.1-5.9,26-3.3c8.4,2.5,16.5,6.2,24.9,9c1.8,0.6,5,0.5,6.1-0.6
		c10.3-11.1,20.2-22.4,31.2-34.8c-8.1-0.9-14.3-1.3-20.4-2.4c-9.6-1.7-18.4-5.3-23.3-14.5c-5.3-9.9-2.3-23,6.8-31.4
		c12.6-11.6,39.4-13.4,53.5-3.5c1.3,0.9,2.4,2,4.3,3.5c-7.2-1.6-13.3-4-19.4-4.1c-7.5-0.2-15.4,0.4-22.5,2.6c-5,1.6-9.9,5.8-13,10.1
		c-7.7,10.7-4,24.2,8.2,29c7.9,3.1,16.7,4.1,25.1,5.4c1.9,0.3,4.7-1.4,6.2-3c9.1-10.2,17.4-21.2,27-30.8c6.7-6.7,15-12.1,23-17.4
		c4.4-2.9,10-5,14.7-0.2c4.5,4.7,2.6,10.2,0.1,14.9c-7.1,13.5-18,23.4-31.5,30.4c-1.9,1-3.9,2.2-6,2.5c-12.1,2.2-19.6,10-26.9,19.4
		C386.5,282.3,376,292.2,365.8,303.3z M410.5,251.1c0.3,0.4,0.6,0.9,0.9,1.3c1.7-0.5,3.4-1,5-1.6c17.7-6.9,29.9-20,39.9-35.4
		c0.7-1.1,1.2-2.4,1.6-3.7c1.2-4.7-1.3-7.4-5.9-5.8c-2.8,1-5.5,2.5-7.7,4.4C430.3,221.7,421.4,237.2,410.5,251.1z M345.4,305.8
		c-7-6.3-20.5-10.5-30.3-9.6c-2.3,0.2-4.9,0.5-6.6,1.9c-2.2,1.7-4.9,4.5-4.8,6.7c0.1,2.2,3,5.4,5.3,6.2
		C321.6,315.6,333.7,313.4,345.4,305.8z"/>
	<path d="M198.4,424.9c-5,4.8-14.5,2.5-16.5-5.2c-1.8-6.9,0.3-13.2,2.6-19.5c1.1-3.1,2.7-6.1,4.2-9.1c1.5-2.9,3.3-5.7,5.7-9.8
		c-9.9,0.9-18.8-2.9-26.6,6.1c-8,9.2-17.4,17.4-27,25.1c-10.6,8.6-23.2,9.5-36.1,6.2c-15.5-4-22.7-19.8-17.1-36.4
		c6.3-18.2,29.8-28.9,47.7-21.6c10.3,4.2,15.3,14.7,12.1,25.4c-3.4,11.4-17.7,16.2-27.3,9.2c-3.9-2.8-4.8-6.7-4.1-11.1
		c0.7-4.4,3.2-7.4,9-9.2c-2.2,2.5-3.5,3.8-4.7,5.3c-4.1,5.3-2.5,11.2,3.5,14c6.6,3,13.8,1,17.5-5c4.2-6.8,3.4-14.9-2.1-19.6
		c-5.5-4.7-12-5.3-18.9-4.6c-15.3,1.7-28.6,15.7-28.6,30c0,11.1,5.8,18.7,16.7,21.2c10.7,2.5,21.2,1.6,29.7-6
		c9.5-8.4,18.2-17.5,27.2-26.4c0.4-0.4,0.5-1.1,1.1-2.3c-3.9-0.4-7.5-0.7-11.1-1.1c0-0.7,0.1-1.4,0.1-2.1c3.1,0,6.3-0.2,9.4,0
		c3.8,0.3,6.5-1.1,9.2-3.8c14.1-14.1,28.2-28.3,42.9-41.9c10.4-9.7,23-15.9,36.9-19c2-0.4,4.2-0.4,8-0.7c-2.1,3.2-3.3,5.2-4.7,7.1
		c-19.1,24.2-38.3,48.3-57.3,72.6c-3.3,4.2-5.9,8.9-8.6,13.5c-1.1,2-1.8,4.3-2.3,6.6C187,422.5,189.1,425.1,198.4,424.9z
		 M252.9,319.2c-0.5-0.6-1-1.1-1.6-1.7C220,329.3,200,355,177.7,378.1c4.6,0.6,8.9,0.3,13.2,0.7c4.3,0.4,6.9-1.5,9.7-4.7
		c10.8-12.4,21.9-24.7,33.2-36.7C239.8,331,246.5,325.2,252.9,319.2z"/>
	<path d="M274.5,483.9c-3.8-2.3-8.1-4.4-11.9-7.3c-8.9-6.8-12.9-15.6-9.7-26.8c3.2-11.1,11.4-16.5,22.2-18.2
		c9.8-1.5,18.6,1.4,26.9,6.3c-0.1,0.4-0.1,0.9-0.2,1.3c-1.6-0.4-3.1-0.9-4.7-1.1c-7.2-0.7-14.6-2.5-21.6-1.6
		c-10.3,1.4-17.7,11.7-17.7,21.9c0,9.7,8.3,20.1,17.9,22.1c1.6,0.3,4.1-0.9,5.3-2.2c13.4-14.3,28.2-26.4,46.7-33.5
		c10.4-4,21.2-6.1,32.3-5.3c6,0.4,12.3,1.2,14.8,8.1c1.8,5.2-1.1,11.6-7.4,16.2c-15.5,11.2-33,17.2-51.9,19.4
		c-6.6,0.8-13.3,0.5-19.9,1.3c-2.7,0.3-6,1.5-7.6,3.5c-4.7,5.6-9.5,11.3-12.6,17.8c-4.2,8.8-4.8,18.6,1.8,26.5
		c6.8,8.2,16.6,9.5,26.6,7.6c18.2-3.6,30.7-14.7,38.6-31c1.4-2.9,1.5-8.3-0.3-10.5c-2.1-2.4-7.4-4.1-10.5-3.3
		c-5.4,1.5-10.2,5.2-15.2,8.1c-1.8,1-3.3,2.5-4.9,3.8c-0.3-0.3-0.6-0.6-0.9-0.9c0.6-0.8,1-1.8,1.7-2.5c6.1-5.8,12.7-10.8,21.1-12.8
		c11-2.6,18.1,4.6,15.7,15.6c-1.7,7.7-6.4,13.5-11.7,18.9c-12.2,12.6-27.1,19-44.7,19c-22.4,0-36.3-18.5-29-39.8
		C266.4,497.3,270.9,490.7,274.5,483.9z M293.9,481.1c0.2,0.5,0.5,0.9,0.7,1.4c1,0.1,1.9,0.3,2.9,0.3c15.6-0.1,30.6-3.1,44.4-10.2
		c9.4-4.8,18-11.2,26.6-17.4c2.1-1.5,4.3-5.9,3.5-7.4c-1.1-2.2-4.9-3.8-7.7-4.1c-9-1-17.8,1-25.5,5.4c-9.9,5.7-19.5,12.1-28.9,18.7
		C304.3,471.8,299.3,476.6,293.9,481.1z"/>
	<path d="M401.6,494.1c-7.6,13.3-17.6,24.7-23.6,38.5c6.4-0.6,10.9-3.9,14.3-8.4c6.5-8.5,12.9-17,18.7-25.9
		c3.1-4.8,6.8-5.6,12.6-4.2c-8.4,13-16.6,25.7-24.8,38.4c0.5,0.6,1,1.1,1.6,1.7c1.9-1.1,4.3-1.8,5.6-3.4c6.4-7.4,13-14.7,18.6-22.7
		c11.1-15.8,21.8-32,32.1-48.3c3.2-5,6.8-6.2,12.7-4.8c-1,1.8-1.8,3.6-2.8,5.1c-14,21.1-28,42.3-41.9,63.4c-1.6,2.4-4.4,5.7-1.1,7.8
		c1.9,1.2,6.6,0.6,8.5-1c4.3-3.7,7.8-8.5,11.4-13c0.6-0.7,0.3-2.5-0.1-3.5c-2.7-6.2-1.8-12.9,3.3-17.3c1.9-1.7,5.5-2.7,7.9-2.2
		c3.7,0.8,4,4.7,3.2,7.9c-0.5,2.2-1.9,4.2-3,6.2c-1.2,2.1-2.7,4.1-4.3,6.4c5.1,2.1,7.7-0.9,10.2-3.7c2.4-2.7,4.5-5.6,7.7-8
		c-0.3,0.9-0.3,2-0.8,2.7c-2.5,3.2-4.7,6.6-7.7,9.1c-2.1,1.8-5.4,3.2-7.9,3c-3.3-0.3-4.7,1-6.5,3.2c-3.5,4.2-6.8,8.7-11.1,12
		c-8.6,6.6-16.8,3.7-20.1-7.1c-1.4,1.5-2.6,2.9-3.9,4c-2.1,1.8-4.1,4-6.6,5.2c-6.2,2.9-9.7,0.7-11.3-6.7
		c-7.9,2.9-14.9,13.8-24.7,2.4c-1.4,1.1-3.1,2.4-4.9,3.6c-3.4,2.3-7,2.3-10.3,0c-3.4-2.3-3.5-6-2.2-9.5c1.1-2.9,2.6-5.8,4.3-8.4
		c12.9-19.7,25.9-39.2,38.7-58.9c2.9-4.5,6.5-3.3,11.2-2.8c-1.3,2-2.2,3.6-3.2,5c-14.1,21.4-28.3,42.8-42.5,64.2
		c-0.7,1.1-1.9,2.2-2,3.4c-0.3,1.8,0.2,3.6,0.3,5.5c1.8-0.2,4.3,0.2,5.3-0.8c5.9-6.1,11.7-12.3,16.9-18.9
		c3.8-4.8,7.2-10.1,10.2-15.4C392.4,493.1,396.2,492.9,401.6,494.1z"/>
	<path d="M414.3,301.8c-3.6,2.3-7.1,5-10.9,7c-4,2.1-8.6,3.9-12.7,0.3c-4.1-3.5-4.1-8.5-2.4-13c5.3-13.7,14.4-24.2,28.2-30.1
		c1.4-0.6,3-1.3,4.3-1c2.9,0.6,6.4,0.9,8.4,2.8c2.9,2.5,0.9,5.9-0.9,8.6c-5.5,8.3-13.1,13-23.1,13.7c-5.2,0.3-11.2,8.5-10.2,13.7
		c0.6,3.1,2.8,4.3,5.6,3.1c2.9-1.2,6-2.4,8.3-4.5c9.1-8.3,18-16.8,26.6-25.6c1.5-1.5,1.3-4.4,2.4-6.4c2-3.7,4.1-7.3,6.5-10.8
		c0.4-0.7,2.6-1.1,3.1-0.6c0.8,0.8,1.4,2.4,1.1,3.4c-0.7,2.5-2.1,4.9-2.8,7.4c-0.7,2.7-1.5,5.7-1.2,8.4c0.6,5.4,1.9,10.7,3.2,17.5
		c8-6.6,15.6-12.7,23.1-18.9c0.3,0.4,0.6,0.7,0.9,1.1c-4.6,4.1-9.1,8.4-13.9,12.2c-6.6,5.3-13.7,9.7-19.6,16
		C431.2,314,421.2,311.8,414.3,301.8z M423.5,291.8c3.7,2.5,6,4,8.4,5.6c2.3,1.5,4,1.1,5.1-1.5c2.3-5.2,2.7-10.4,0.3-15.9
		c-0.8,0.5-1.4,0.8-1.9,1.2C431.5,284.5,427.7,288,423.5,291.8z M404.8,286.2c9.9-1.3,19.6-10.2,20.5-18.8
		C415.9,271.3,410.9,279.4,404.8,286.2z M433.5,301.2c-2.7-1.3-5.2-3.1-8-3.6c-1.8-0.3-5,1-5.5,2.4c-0.6,1.5,0.5,4.6,1.9,5.9
		C425.6,309.2,429.9,307.5,433.5,301.2z"/>
</g>
</svg>
