<?xml version="1.0" encoding="utf-8"?>
<!-- Generator: Adobe Illustrator 25.0.1, SVG Export Plug-In . SVG Version: 6.00 Build 0)  -->
<svg version="1.0" id="katman_1" xmlns="http://www.w3.org/2000/svg" xmlns:xlink="http://www.w3.org/1999/xlink" x="0px" y="0px"
	 viewBox="0 0 800 600" style="enable-background:new 0 0 800 600;" xml:space="preserve">
<style type="text/css">
	.st0{fill:url(#SVGID_1_);}
</style>
<g>
	<path d="M295.4,321.3c0,3,0.6,5.8,1.7,8.4c1.1,2.6,2.6,4.9,4.5,6.9c3.9,4,9.3,6.3,14.9,6.3c5.6,0,11-2.3,14.9-6.3
		c4-4.1,6.2-9.6,6.1-15.3c0-5.7-2.2-11.2-6.1-15.3c-1.9-2-4.2-3.5-6.7-4.6c-2.6-1.1-5.4-1.7-8.2-1.7c-5.6,0-11,2.3-14.9,6.3
		c-1.9,2-3.5,4.3-4.5,6.9C295.9,315.5,295.4,318.4,295.4,321.3L295.4,321.3z M277.7,261.9c0-1.3,0.2-2.5,0.7-3.7
		c0.4-1.1,1.1-2.1,1.9-3c0.8-0.8,1.8-1.5,2.8-2c1.1-0.5,2.3-0.7,3.5-0.7c1.3,0,2.4,0.2,3.5,0.7c2.1,1,3.8,2.8,4.6,5
		c0.4,1.1,0.6,2.4,0.6,3.7v30.6c0.9-1.6,2.1-3,3.6-4.4c1.5-1.4,3.3-2.5,5.2-3.5c1.9-1,3.9-1.8,6-2.4c2.1-0.6,4.2-0.9,6.3-0.9
		c5.2,0,10.3,1,15,3.1c4.6,2,8.8,4.9,12.3,8.6c3.5,3.7,6.3,8,8.3,12.7c2,4.9,3.1,10.2,3.1,15.5c0,5.3-1,10.6-3.1,15.4
		c-2,4.7-4.8,8.9-8.3,12.6c-3.5,3.6-7.7,6.5-12.3,8.5c-4.7,2.1-9.8,3.2-15,3.1c-5.2,0-10.3-1-15-3.1c-4.6-2-8.8-4.9-12.3-8.5
		c-3.6-3.6-6.4-7.9-8.4-12.6c-2.1-4.9-3.1-10.1-3.1-15.4V261.9z M366.7,290.4c0-3.6,2.2-6.9,5.5-8.3c1.1-0.5,2.3-0.7,3.5-0.7
		c1.2,0,2.3,0.2,3.4,0.7c2.1,1,3.7,2.7,4.5,4.8c0.4,1.1,0.7,2.3,0.7,3.5v61.4c0,2.4-0.9,4.6-2.5,6.4c-0.8,0.8-1.7,1.5-2.8,1.9
		c-1.1,0.5-2.2,0.7-3.4,0.7c-1.2,0-2.4-0.2-3.4-0.7c-2.1-0.9-3.9-2.6-4.8-4.8c-0.5-1.1-0.7-2.3-0.7-3.5L366.7,290.4L366.7,290.4z
		 M366,263.4c0-2.6,1-5.1,2.8-7c0.9-0.9,1.9-1.6,3-2.1c1.2-0.5,2.4-0.8,3.8-0.8c1.3,0,2.5,0.3,3.7,0.8s2.2,1.2,3,2.1
		c0.9,0.9,1.6,1.9,2.1,3.1c0.5,1.2,0.8,2.5,0.8,3.8c0,1.4-0.3,2.7-0.8,3.9c-0.5,1.2-1.2,2.2-2.1,3.1c-0.9,0.9-1.9,1.6-3,2.1
		c-1.2,0.5-2.4,0.8-3.7,0.8c-1.4,0-2.6-0.3-3.8-0.8c-1.1-0.5-2.2-1.2-3-2.1C367,268.5,366,266,366,263.4L366,263.4z M395.8,266.9
		c0-3.7,2.1-7,5.5-8.5c1.1-0.5,2.2-0.7,3.4-0.7c2.4,0,4.7,0.9,6.4,2.6c0.8,0.8,1.5,1.8,2,2.9c0.5,1.1,0.8,2.3,0.8,3.6V280h27.8
		c1.2,0,2.4,0.2,3.5,0.7c2.1,0.9,3.8,2.7,4.7,4.8c0.5,1.1,0.7,2.3,0.7,3.5c0,1.2-0.2,2.3-0.7,3.4c-1.4,3.2-4.6,5.3-8.2,5.3h-27.8
		v23.8c0,3,0.5,5.8,1.6,8.4c1.1,2.6,2.5,4.8,4.4,6.8c1.8,1.9,4,3.4,6.5,4.5c2.5,1.1,5.2,1.6,8.2,1.6c2.6,0,5-0.4,7.2-1.1
		c2.2-0.8,4.3-2,6.2-3.7c1.1-0.9,2.1-1.7,3.1-2.2c1-0.6,2.2-0.9,3.6-0.9c1,0,2,0.2,2.9,0.7c1,0.4,1.8,1,2.5,1.8
		c0.7,0.8,1.3,1.7,1.8,2.8c0.5,1.1,0.7,2.2,0.7,3.4c0,1.4-0.3,2.8-0.8,4.1c-0.5,1.3-1.3,2.5-2.4,3.5c-3.2,3.2-7.1,5.7-11.3,7.3
		c-4.2,1.6-8.7,2.4-13.5,2.4c-5.2,0-10.4-1-15.2-3.1c-4.6-2-8.8-4.8-12.3-8.4c-3.5-3.6-6.3-7.9-8.3-12.5c-2.1-4.9-3.1-10.2-3.1-15.5
		V266.9z M474.2,323.1c0-5.6,1.1-11.1,3.2-16.2c2-4.9,5-9.5,8.7-13.3c3.7-3.8,8.1-6.8,12.9-9c4.9-2.2,10.3-3.3,15.7-3.3h0.2
		c2.9,0,5.2,0.8,6.7,2.5c1.6,1.7,2.4,3.9,2.4,6.5c0,1.3-0.2,2.5-0.7,3.6c-0.4,1.1-1.1,2.1-1.9,2.9c-1.7,1.7-4.1,2.6-6.5,2.6h-0.4
		c-3,0-5.9,0.7-8.6,1.9c-2.7,1.2-5.1,2.9-7.2,5c-2.1,2.1-3.7,4.5-5,7.3c-1.3,2.8-1.9,5.9-1.9,9v28.5c0,1.2-0.2,2.4-0.7,3.5
		c-0.5,1.1-1.1,2-1.8,2.9c-0.8,0.8-1.7,1.5-2.7,1.9c-2.2,0.9-4.6,0.9-6.8,0c-1.1-0.5-2.1-1.1-2.9-1.9c-1.7-1.7-2.7-4-2.7-6.4
		L474.2,323.1L474.2,323.1z M535.5,290.3c0-2.4,0.9-4.6,2.5-6.4c0.8-0.8,1.7-1.5,2.8-1.9c1.1-0.5,2.2-0.7,3.4-0.7
		c2.4,0,4.6,0.9,6.3,2.6c0.8,0.8,1.4,1.8,1.9,2.9s0.7,2.3,0.7,3.5v32.3c0,2.9,0.5,5.5,1.5,8c1.9,4.8,5.7,8.6,10.4,10.7
		c2.4,1,5,1.5,7.8,1.5c5,0.1,9.9-2.1,13.2-5.9c1.6-1.9,2.9-4.1,3.6-6.4c0.8-2.5,1.3-5.2,1.3-8v-32.1c0-2.4,1-4.7,2.7-6.4
		c0.8-0.8,1.8-1.5,2.9-1.9c1.1-0.5,2.2-0.7,3.4-0.7c2.3,0,4.5,0.9,6.1,2.6c1.6,1.7,2.5,4,2.5,6.4v32.1c0,5.3-0.9,10.3-2.7,15
		c-1.7,4.5-4.2,8.6-7.5,12.2c-3.2,3.5-7,6.3-11.3,8.3c-4.4,2-9.1,3-14.2,3c-5.2,0-10-1-14.6-3c-4.5-2-8.5-4.8-11.9-8.3
		c-7-7.3-10.9-17-10.9-27.2V290.3L535.5,290.3z M639.8,329.4c1.4,4.1,3.9,7.6,7.3,10.2c1.7,1.2,3.5,2.2,5.6,2.9
		c2,0.7,4.2,1.1,6.4,1.1c2.4,0,4.3-0.2,5.9-0.6c1.5-0.4,3-1.1,4.4-1.9c1.9-1.1,3.6-1.7,5.2-1.7c1.2,0,2.4,0.3,3.4,0.8
		c1.1,0.5,2,1.2,2.7,2.1c1.6,1.8,2.5,4.1,2.5,6.5c0,1.8-0.6,3.5-1.7,5c-1.2,1.5-2.8,2.8-4.9,3.9c-2.4,1.2-5,2-7.6,2.4
		c-3.2,0.6-6.5,0.9-9.8,0.9c-5.2,0-10.3-1-15.1-3.1c-4.6-2-8.9-4.9-12.4-8.5c-3.6-3.6-6.4-7.9-8.4-12.6c-2.1-4.9-3.1-10.1-3.1-15.4
		c0-5.3,1-10.6,3.1-15.6c2-4.7,4.8-9,8.4-12.6c3.6-3.6,7.8-6.5,12.4-8.5c4.8-2.1,9.9-3.2,15.1-3.1c5.3,0,10.3,1,15,3.1
		c4.7,2.1,8.8,4.9,12.3,8.4c3.6,3.6,6.4,7.8,8.4,12.5c2.1,4.8,3.2,9.9,3.3,15.4c0,2.6-0.8,4.7-2.4,6.3c-1.6,1.6-3.7,2.4-6.2,2.4
		L639.8,329.4z M679.9,314.2c-0.6-2.2-1.6-4.4-2.9-6.3c-1.3-1.9-2.8-3.5-4.6-4.9c-1.8-1.4-3.8-2.5-6-3.2c-2.2-0.8-4.6-1.1-7.1-1.1
		c-2.5,0-4.8,0.4-7,1.2c-2.2,0.8-4.2,1.9-5.9,3.3c-1.7,1.4-3.3,3.1-4.5,4.9c-1.2,1.9-2.2,3.9-2.7,6.1L679.9,314.2z"/>
	
		<linearGradient id="SVGID_1_" gradientUnits="userSpaceOnUse" x1="8.3369" y1="593.8234" x2="8.3369" y2="588.4002" gradientTransform="matrix(26.25 0 0 -30 -46.21 18033.3398)">
		<stop  offset="0" style="stop-color:#FFE275"/>
		<stop  offset="1" style="stop-color:#F0B736"/>
	</linearGradient>
	<path class="st0" d="M220.1,327.4v-81.1l23.7,13.5V341l-43.5,24.8l-23.7-13.5L220.1,327.4z M101.5,291.2l23.7-13.5v49.5h0
		l71.2,40.5v0l-23.7,13.5l-71.2-40.5L101.5,291.2z M172.7,218.6L172.7,218.6l43.5,24.7v27.1l-43.5-24.7v0h0l-71.2,40.6h0v-27h0
		L172.7,218.6z M146.1,266.8l16.1-9.1v34c1.7-1.2,5.5-4.2,11.4-4.2c7.6,0,14.1,2.6,19.5,7.9c5.4,5.3,8,11.7,8,19.2
		c0,7.5-2.7,13.9-8,19.2c-5.4,5.3-11.8,8-19.5,8c-7.7,0-14.2-2.7-19.5-8c-5.4-5.3-8-11.7-8-19.2V266.8z M165.5,322.5
		c2.2,2.2,4.9,3.3,8.1,3.3c3.1,0,5.8-1.1,8-3.3c2.2-2.1,3.4-5,3.4-8c0-3.1-1.1-5.7-3.4-7.9c-2.1-2.1-5-3.3-8-3.3
		c-3.1,0-5.8,1.1-8.1,3.3c-2.2,2-3.4,4.9-3.4,7.9C162.2,317.6,163.3,320.3,165.5,322.5z"/>
</g>
</svg>
