<?xml version="1.0" encoding="utf-8"?>
<!-- Generator: Adobe Illustrator 26.3.1, SVG Export Plug-In . SVG Version: 6.00 Build 0)  -->
<svg version="1.1" id="katman_1" xmlns="http://www.w3.org/2000/svg" xmlns:xlink="http://www.w3.org/1999/xlink" x="0px" y="0px"
	 viewBox="0 0 614.3 179.8" style="enable-background:new 0 0 614.3 179.8;" xml:space="preserve">
<style type="text/css">
	.st0{fill:#FFFFFF;}
	.st1{fill:url(#SVGID_1_);}
</style>
<g>
	<path class="st0" d="M202.7,111.3c0,3,0.6,5.8,1.7,8.4s2.6,4.9,4.5,6.9c3.9,4,9.3,6.3,14.9,6.3s11-2.3,14.9-6.3
		c4-4.1,6.2-9.6,6.1-15.3c0-5.7-2.2-11.2-6.1-15.3c-1.9-2-4.2-3.5-6.7-4.6c-2.6-1.1-5.4-1.7-8.2-1.7c-5.6,0-11,2.3-14.9,6.3
		c-1.9,2-3.5,4.3-4.5,6.9C203.2,105.5,202.7,108.4,202.7,111.3L202.7,111.3z M185,51.9c0-1.3,0.2-2.5,0.7-3.7c0.4-1.1,1.1-2.1,1.9-3
		c0.8-0.8,1.8-1.5,2.8-2c1.1-0.5,2.3-0.7,3.5-0.7c1.3,0,2.4,0.2,3.5,0.7c2.1,1,3.8,2.8,4.6,5c0.4,1.1,0.6,2.4,0.6,3.7v30.6
		c0.9-1.6,2.1-3,3.6-4.4s3.3-2.5,5.2-3.5c1.9-1,3.9-1.8,6-2.4s4.2-0.9,6.3-0.9c5.2,0,10.3,1,15,3.1c4.6,2,8.8,4.9,12.3,8.6
		s6.3,8,8.3,12.7c2,4.9,3.1,10.2,3.1,15.5s-1,10.6-3.1,15.4c-2,4.7-4.8,8.9-8.3,12.6c-3.5,3.6-7.7,6.5-12.3,8.5
		c-4.7,2.1-9.8,3.2-15,3.1c-5.2,0-10.3-1-15-3.1c-4.6-2-8.8-4.9-12.3-8.5c-3.6-3.6-6.4-7.9-8.4-12.6c-2.1-4.9-3.1-10.1-3.1-15.4
		L185,51.9L185,51.9z M274,80.4c0-3.6,2.2-6.9,5.5-8.3c1.1-0.5,2.3-0.7,3.5-0.7s2.3,0.2,3.4,0.7c2.1,1,3.7,2.7,4.5,4.8
		c0.4,1.1,0.7,2.3,0.7,3.5v61.4c0,2.4-0.9,4.6-2.5,6.4c-0.8,0.8-1.7,1.5-2.8,1.9c-1.1,0.5-2.2,0.7-3.4,0.7c-1.2,0-2.4-0.2-3.4-0.7
		c-2.1-0.9-3.9-2.6-4.8-4.8c-0.5-1.1-0.7-2.3-0.7-3.5L274,80.4L274,80.4z M273.3,53.4c0-2.6,1-5.1,2.8-7c0.9-0.9,1.9-1.6,3-2.1
		c1.2-0.5,2.4-0.8,3.8-0.8c1.3,0,2.5,0.3,3.7,0.8s2.2,1.2,3,2.1c0.9,0.9,1.6,1.9,2.1,3.1s0.8,2.5,0.8,3.8c0,1.4-0.3,2.7-0.8,3.9
		c-0.5,1.2-1.2,2.2-2.1,3.1s-1.9,1.6-3,2.1c-1.2,0.5-2.4,0.8-3.7,0.8c-1.4,0-2.6-0.3-3.8-0.8c-1.1-0.5-2.2-1.2-3-2.1
		C274.3,58.5,273.3,56,273.3,53.4L273.3,53.4z M303.1,56.9c0-3.7,2.1-7,5.5-8.5c1.1-0.5,2.2-0.7,3.4-0.7c2.4,0,4.7,0.9,6.4,2.6
		c0.8,0.8,1.5,1.8,2,2.9s0.8,2.3,0.8,3.6V70H349c1.2,0,2.4,0.2,3.5,0.7c2.1,0.9,3.8,2.7,4.7,4.8c0.5,1.1,0.7,2.3,0.7,3.5
		s-0.2,2.3-0.7,3.4c-1.4,3.2-4.6,5.3-8.2,5.3h-27.8v23.8c0,3,0.5,5.8,1.6,8.4s2.5,4.8,4.4,6.8c1.8,1.9,4,3.4,6.5,4.5
		s5.2,1.6,8.2,1.6c2.6,0,5-0.4,7.2-1.1c2.2-0.8,4.3-2,6.2-3.7c1.1-0.9,2.1-1.7,3.1-2.2c1-0.6,2.2-0.9,3.6-0.9c1,0,2,0.2,2.9,0.7
		c1,0.4,1.8,1,2.5,1.8s1.3,1.7,1.8,2.8c0.5,1.1,0.7,2.2,0.7,3.4c0,1.4-0.3,2.8-0.8,4.1c-0.5,1.3-1.3,2.5-2.4,3.5
		c-3.2,3.2-7.1,5.7-11.3,7.3c-4.2,1.6-8.7,2.4-13.5,2.4c-5.2,0-10.4-1-15.2-3.1c-4.6-2-8.8-4.8-12.3-8.4s-6.3-7.9-8.3-12.5
		c-2.1-4.9-3.1-10.2-3.1-15.5L303.1,56.9L303.1,56.9z M381.5,113.1c0-5.6,1.1-11.1,3.2-16.2c2-4.9,5-9.5,8.7-13.3s8.1-6.8,12.9-9
		c4.9-2.2,10.3-3.3,15.7-3.3h0.2c2.9,0,5.2,0.8,6.7,2.5c1.6,1.7,2.4,3.9,2.4,6.5c0,1.3-0.2,2.5-0.7,3.6c-0.4,1.1-1.1,2.1-1.9,2.9
		c-1.7,1.7-4.1,2.6-6.5,2.6h-0.4c-3,0-5.9,0.7-8.6,1.9c-2.7,1.2-5.1,2.9-7.2,5s-3.7,4.5-5,7.3s-1.9,5.9-1.9,9v28.5
		c0,1.2-0.2,2.4-0.7,3.5s-1.1,2-1.8,2.9c-0.8,0.8-1.7,1.5-2.7,1.9c-2.2,0.9-4.6,0.9-6.8,0c-1.1-0.5-2.1-1.1-2.9-1.9
		c-1.7-1.7-2.7-4-2.7-6.4L381.5,113.1L381.5,113.1z M442.8,80.3c0-2.4,0.9-4.6,2.5-6.4c0.8-0.8,1.7-1.5,2.8-1.9
		c1.1-0.5,2.2-0.7,3.4-0.7c2.4,0,4.6,0.9,6.3,2.6c0.8,0.8,1.4,1.8,1.9,2.9s0.7,2.3,0.7,3.5v32.3c0,2.9,0.5,5.5,1.5,8
		c1.9,4.8,5.7,8.6,10.4,10.7c2.4,1,5,1.5,7.8,1.5c5,0.1,9.9-2.1,13.2-5.9c1.6-1.9,2.9-4.1,3.6-6.4c0.8-2.5,1.3-5.2,1.3-8V80.4
		c0-2.4,1-4.7,2.7-6.4c0.8-0.8,1.8-1.5,2.9-1.9c1.1-0.5,2.2-0.7,3.4-0.7c2.3,0,4.5,0.9,6.1,2.6s2.5,4,2.5,6.4v32.1
		c0,5.3-0.9,10.3-2.7,15c-1.7,4.5-4.2,8.6-7.5,12.2c-3.2,3.5-7,6.3-11.3,8.3c-4.4,2-9.1,3-14.2,3c-5.2,0-10-1-14.6-3
		c-4.5-2-8.5-4.8-11.9-8.3c-7-7.3-10.9-17-10.9-27.2L442.8,80.3L442.8,80.3z M547.1,119.4c1.4,4.1,3.9,7.6,7.3,10.2
		c1.7,1.2,3.5,2.2,5.6,2.9c2,0.7,4.2,1.1,6.4,1.1c2.4,0,4.3-0.2,5.9-0.6c1.5-0.4,3-1.1,4.4-1.9c1.9-1.1,3.6-1.7,5.2-1.7
		c1.2,0,2.4,0.3,3.4,0.8c1.1,0.5,2,1.2,2.7,2.1c1.6,1.8,2.5,4.1,2.5,6.5c0,1.8-0.6,3.5-1.7,5c-1.2,1.5-2.8,2.8-4.9,3.9
		c-2.4,1.2-5,2-7.6,2.4c-3.2,0.6-6.5,0.9-9.8,0.9c-5.2,0-10.3-1-15.1-3.1c-4.6-2-8.9-4.9-12.4-8.5c-3.6-3.6-6.4-7.9-8.4-12.6
		c-2.1-4.9-3.1-10.1-3.1-15.4s1-10.6,3.1-15.6c2-4.7,4.8-9,8.4-12.6c3.6-3.6,7.8-6.5,12.4-8.5c4.8-2.1,9.9-3.2,15.1-3.1
		c5.3,0,10.3,1,15,3.1s8.8,4.9,12.3,8.4c3.6,3.6,6.4,7.8,8.4,12.5c2.1,4.8,3.2,9.9,3.3,15.4c0,2.6-0.8,4.7-2.4,6.3
		c-1.6,1.6-3.7,2.4-6.2,2.4L547.1,119.4z M587.2,104.2c-0.6-2.2-1.6-4.4-2.9-6.3c-1.3-1.9-2.8-3.5-4.6-4.9s-3.8-2.5-6-3.2
		c-2.2-0.8-4.6-1.1-7.1-1.1s-4.8,0.4-7,1.2c-2.2,0.8-4.2,1.9-5.9,3.3s-3.3,3.1-4.5,4.9c-1.2,1.9-2.2,3.9-2.7,6.1H587.2z"/>
	
		<linearGradient id="SVGID_1_" gradientUnits="userSpaceOnUse" x1="-80.5149" y1="-196.658" x2="-80.5149" y2="-191.238" gradientTransform="matrix(26.25 0 0 30 2193.4668 5908.3398)">
		<stop  offset="0" style="stop-color:#FFE275"/>
		<stop  offset="1" style="stop-color:#F0B736"/>
	</linearGradient>
	<path class="st1" d="M127.4,117.4V36.3l23.7,13.5V131l-43.5,24.8l-23.7-13.5L127.4,117.4z M8.8,81.2l23.7-13.5v49.5l0,0l71.2,40.5
		l0,0L80,171.2L8.8,130.7V81.2z M80,8.6L80,8.6l43.5,24.7v27.1L80,35.7l0,0l0,0L8.8,76.3l0,0v-27l0,0L80,8.6z M53.4,56.8l16.1-9.1
		v34c1.7-1.2,5.5-4.2,11.4-4.2c7.6,0,14.1,2.6,19.5,7.9s8,11.7,8,19.2s-2.7,13.9-8,19.2c-5.4,5.3-11.8,8-19.5,8s-14.2-2.7-19.5-8
		c-5.4-5.3-8-11.7-8-19.2V56.8z M72.8,112.5c2.2,2.2,4.9,3.3,8.1,3.3c3.1,0,5.8-1.1,8-3.3c2.2-2.1,3.4-5,3.4-8
		c0-3.1-1.1-5.7-3.4-7.9c-2.1-2.1-5-3.3-8-3.3c-3.1,0-5.8,1.1-8.1,3.3c-2.2,2-3.4,4.9-3.4,7.9C69.5,107.6,70.6,110.3,72.8,112.5z"/>
</g>
</svg>
