<?xml version="1.0" encoding="utf-8"?>
<!-- Generator: Adobe Illustrator 25.0.0, SVG Export Plug-In . SVG Version: 6.00 Build 0)  -->
<svg version="1.1" id="Layer_1" xmlns="http://www.w3.org/2000/svg" xmlns:xlink="http://www.w3.org/1999/xlink" x="0px" y="0px"
	 viewBox="0 0 380 85" style="enable-background:new 0 0 380 85;" xml:space="preserve">
<style type="text/css">
	.st0{fill:#0FD297;}
</style>
<g>
	<g>
		<g>
			<g>
				<path class="st0" d="M47.358,49.992c1.041,1.417,2.051,2.814,3.21,4.14c2.088,2.39,4.475,4.35,7.579,5.288
					c1.704,0.515,3.455,0.745,5.219,0.908c0.139,0.013,0.243,0.027,0.323,0.18c0.922,1.759,1.431,3.604,1.192,5.608
					c-0.019,0.156-0.044,0.312-0.073,0.505c-0.006,0.04-0.055,0.056-0.084,0.028c-0.419-0.412-0.817-0.783-1.252-1.11
					c-1.455-1.096-3.056-1.841-4.901-1.915c-2.456-0.099-4.564,1.361-5.428,3.71c-0.703,1.913-0.673,3.853-0.205,5.808
					c0.023,0.095,0.047,0.19,0.064,0.287c0.008,0.045,0.002,0.102-0.034,0.092c-0.724-0.212-1.373-0.577-1.988-1
					c-1.132-0.781-2.008-1.801-2.738-2.959c-0.12-0.191-0.044-0.321,0.026-0.474c0.6-1.308,1.13-2.64,1.534-4.024
					c0.816-2.797,0.692-5.585-0.038-8.373c-0.572-2.183-1.458-4.248-2.364-6.306c-0.049-0.112-0.093-0.226-0.139-0.34
					C47.228,49.963,47.32,49.928,47.358,49.992z"/>
				<path class="st0" d="M43.162,75.646c-0.044,0.122-0.216,0.124-0.261,0.002c-0.953-2.626-2.25-4.987-3.328-7.445
					c-0.711-1.621-1.379-3.258-1.626-5.03c0,0,0-0.001,0-0.001c-0.015-0.108,0.095-0.188,0.195-0.144
					c3.253,1.436,6.484,1.436,9.733-0.017c0.099-0.044,0.208,0.039,0.193,0.147c-0.179,1.31-0.573,2.477-1.022,3.629
					c-0.845,2.164-1.922,4.224-2.867,6.342C43.818,73.934,43.482,74.748,43.162,75.646z"/>
				<path class="st0" d="M42.819,45.662c0.059-0.144,0.264-0.142,0.321,0.003c0.132,0.337,0.26,0.668,0.4,0.993
					c0.934,2.162,1.882,4.319,2.808,6.484c0.279,0.653,0.493,1.334,0.757,1.995c0.094,0.235,0.051,0.334-0.188,0.424
					c-2.615,0.995-5.226,1.001-7.845,0.012c-0.247-0.093-0.26-0.197-0.182-0.428c0.801-2.363,1.875-4.613,2.855-6.901
					C42.113,47.387,42.461,46.522,42.819,45.662L42.819,45.662z"/>
			</g>
			<path class="st0" d="M66.199,60.581c-0.027-0.069,0.026-0.143,0.1-0.138c1.747,0.118,3.441,0.291,5.118,0.625
				c0.225,0.045,0.22,0.188,0.244,0.34c0.396,2.443,0.327,4.875-0.203,7.291c-0.636,2.899-1.84,5.529-3.857,7.73
				c-3.082,3.363-6.967,4.811-11.475,4.575c-4.123-0.216-7.759-1.745-10.969-4.321c-0.159-0.127-0.194-0.232-0.127-0.43
				c0.542-1.613,1.249-3.154,1.993-4.681c0,0,0-0.001,0.001-0.001c0.032-0.064,0.122-0.068,0.167-0.011
				c3.751,4.767,9.956,6.049,14.826,3C66.466,71.775,68.409,66.193,66.199,60.581z"/>
		</g>
		<g>
			<g>
				<path class="st0" d="M38.702,50.085c-0.707,1.611-1.411,3.183-1.981,4.85c-1.026,3.004-1.53,6.051-0.79,9.208
					c0.406,1.733,1.082,3.365,1.823,4.974c0.058,0.127,0.098,0.224,0.006,0.37c-1.063,1.678-2.405,3.041-4.261,3.836
					c-0.145,0.062-0.292,0.118-0.474,0.189c-0.038,0.015-0.076-0.02-0.066-0.059c0.148-0.569,0.269-1.099,0.335-1.64
					c0.221-1.808,0.066-3.567-0.792-5.202c-1.143-2.176-3.461-3.273-5.927-2.845c-2.008,0.348-3.673,1.343-5.132,2.727
					c-0.071,0.067-0.142,0.136-0.216,0.199c-0.035,0.03-0.087,0.053-0.097,0.017c-0.179-0.733-0.187-1.478-0.127-2.221
					c0.11-1.371,0.556-2.64,1.193-3.851c0.105-0.2,0.256-0.199,0.423-0.214c1.432-0.134,2.852-0.341,4.252-0.683
					c2.83-0.692,5.183-2.193,7.232-4.22c1.605-1.587,2.95-3.387,4.279-5.2c0.072-0.099,0.15-0.193,0.225-0.29
					C38.662,49.958,38.738,50.02,38.702,50.085z"/>
				<path class="st0" d="M14.387,59.278c-0.128,0.023-0.215-0.126-0.132-0.225c1.798-2.138,3.194-4.442,4.784-6.605
					c1.048-1.426,2.132-2.823,3.543-3.923c0,0,0.001-0.001,0.001-0.001c0.086-0.067,0.21-0.011,0.222,0.096
					c0.382,3.535,1.999,6.333,4.881,8.42c0.088,0.064,0.07,0.2-0.031,0.241c-1.224,0.5-2.431,0.742-3.654,0.929
					c-2.297,0.35-4.619,0.447-6.926,0.688C16.198,58.99,15.324,59.106,14.387,59.278z"/>
				<path class="st0" d="M40.183,43.989c0.154-0.021,0.255,0.158,0.158,0.279c-0.226,0.283-0.448,0.559-0.66,0.843
					c-1.405,1.89-2.799,3.789-4.212,5.674c-0.426,0.569-0.909,1.094-1.349,1.653c-0.157,0.199-0.263,0.211-0.462,0.049
					c-2.169-1.767-3.48-4.026-3.933-6.787c-0.043-0.261,0.04-0.324,0.279-0.371c2.447-0.488,4.932-0.682,7.404-0.978
					C38.335,44.24,39.258,44.109,40.183,43.989L40.183,43.989z"/>
			</g>
			<path class="st0" d="M38.952,71.696c0.046-0.058,0.137-0.049,0.17,0.018c0.772,1.572,1.469,3.126,2.018,4.745
				c0.074,0.218-0.053,0.284-0.173,0.382c-1.918,1.565-4.059,2.721-6.416,3.47c-2.829,0.899-5.708,1.171-8.623,0.525
				c-4.454-0.987-7.65-3.628-9.7-7.65c-1.874-3.678-2.368-7.592-1.743-11.66c0.031-0.201,0.104-0.284,0.309-0.325
				c1.668-0.336,3.356-0.495,5.05-0.614c0,0,0.001,0,0.001,0c0.071-0.005,0.12,0.072,0.093,0.139
				c-2.253,5.632-0.261,11.647,4.814,14.34C29.391,77.524,35.197,76.416,38.952,71.696z"/>
		</g>
	</g>
	<g>
		<g>
			<g>
				<path class="st0" d="M38.631,35.008c-1.041-1.417-2.051-2.814-3.21-4.14c-2.088-2.39-4.475-4.35-7.579-5.288
					c-1.704-0.515-3.455-0.745-5.219-0.908c-0.139-0.013-0.243-0.027-0.323-0.18c-0.922-1.759-1.431-3.604-1.192-5.608
					c0.019-0.156,0.044-0.312,0.073-0.505c0.006-0.04,0.055-0.056,0.084-0.028c0.419,0.412,0.817,0.783,1.252,1.11
					c1.455,1.096,3.056,1.841,4.901,1.915c2.456,0.099,4.564-1.361,5.428-3.71c0.703-1.913,0.673-3.853,0.205-5.808
					c-0.023-0.095-0.047-0.19-0.064-0.287c-0.008-0.045-0.002-0.102,0.034-0.092c0.724,0.212,1.373,0.577,1.988,1
					c1.132,0.781,2.008,1.801,2.738,2.959c0.12,0.191,0.044,0.321-0.026,0.474c-0.6,1.308-1.13,2.64-1.534,4.024
					c-0.816,2.797-0.692,5.585,0.038,8.373c0.572,2.183,1.458,4.248,2.364,6.306c0.049,0.112,0.093,0.226,0.139,0.34
					C38.761,35.037,38.669,35.072,38.631,35.008z"/>
				<path class="st0" d="M42.827,9.354c0.044-0.122,0.216-0.124,0.261-0.002c0.953,2.626,2.25,4.987,3.328,7.445
					c0.711,1.621,1.379,3.258,1.626,5.03c0,0,0,0.001,0,0.001c0.015,0.108-0.095,0.188-0.195,0.144
					c-3.253-1.436-6.484-1.436-9.733,0.017c-0.099,0.044-0.208-0.039-0.193-0.147c0.179-1.31,0.573-2.477,1.022-3.629
					c0.845-2.164,1.922-4.224,2.867-6.342C42.171,11.066,42.507,10.252,42.827,9.354z"/>
				<path class="st0" d="M43.17,39.338c-0.059,0.144-0.264,0.142-0.321-0.003c-0.132-0.337-0.26-0.668-0.4-0.993
					c-0.934-2.162-1.882-4.319-2.808-6.484c-0.279-0.653-0.493-1.334-0.757-1.995c-0.094-0.235-0.051-0.334,0.188-0.424
					c2.615-0.995,5.226-1.001,7.845-0.012c0.247,0.093,0.26,0.197,0.182,0.428c-0.801,2.363-1.875,4.613-2.855,6.901
					C43.876,37.613,43.528,38.478,43.17,39.338L43.17,39.338z"/>
			</g>
			<path class="st0" d="M19.79,24.419c0.027,0.069-0.026,0.143-0.1,0.138c-1.747-0.118-3.441-0.291-5.118-0.625
				c-0.225-0.045-0.22-0.188-0.244-0.34c-0.396-2.443-0.327-4.875,0.203-7.291c0.636-2.899,1.84-5.529,3.857-7.73
				c3.082-3.363,6.967-4.811,11.475-4.575c4.123,0.216,7.759,1.745,10.969,4.321c0.159,0.127,0.194,0.232,0.127,0.43
				c-0.542,1.613-1.249,3.154-1.993,4.681c0,0,0,0.001-0.001,0.001c-0.032,0.064-0.122,0.068-0.167,0.011
				c-3.751-4.767-9.956-6.049-14.826-3C19.523,13.225,17.58,18.807,19.79,24.419z"/>
		</g>
		<g>
			<g>
				<path class="st0" d="M47.287,34.915c0.707-1.611,1.411-3.183,1.981-4.85c1.026-3.004,1.53-6.051,0.79-9.208
					c-0.406-1.733-1.082-3.365-1.823-4.974c-0.058-0.127-0.098-0.224-0.006-0.37c1.063-1.678,2.405-3.041,4.261-3.836
					c0.145-0.062,0.292-0.118,0.474-0.189c0.038-0.015,0.076,0.02,0.066,0.059c-0.148,0.569-0.269,1.099-0.335,1.64
					c-0.221,1.808-0.066,3.567,0.792,5.202c1.143,2.176,3.461,3.273,5.927,2.845c2.008-0.348,3.673-1.343,5.132-2.727
					c0.071-0.067,0.142-0.136,0.216-0.199c0.035-0.03,0.087-0.053,0.097-0.017c0.179,0.733,0.187,1.478,0.127,2.221
					c-0.11,1.371-0.556,2.64-1.193,3.851c-0.105,0.2-0.256,0.199-0.423,0.214c-1.432,0.134-2.852,0.341-4.252,0.683
					c-2.83,0.692-5.183,2.193-7.232,4.22c-1.605,1.587-2.95,3.387-4.279,5.2c-0.072,0.099-0.15,0.193-0.225,0.29
					C47.327,35.042,47.251,34.98,47.287,34.915z"/>
				<path class="st0" d="M71.602,25.722c0.128-0.023,0.215,0.126,0.132,0.225c-1.798,2.138-3.194,4.442-4.784,6.605
					c-1.048,1.426-2.132,2.823-3.543,3.923c0,0-0.001,0.001-0.001,0.001c-0.086,0.067-0.21,0.011-0.222-0.096
					c-0.382-3.535-1.999-6.333-4.881-8.42c-0.088-0.064-0.07-0.2,0.031-0.241c1.224-0.5,2.431-0.742,3.654-0.929
					c2.297-0.35,4.619-0.447,6.926-0.688C69.791,26.01,70.665,25.894,71.602,25.722z"/>
				<path class="st0" d="M45.806,41.011c-0.154,0.021-0.255-0.158-0.158-0.279c0.226-0.283,0.448-0.559,0.66-0.843
					c1.405-1.89,2.799-3.789,4.212-5.674c0.426-0.569,0.909-1.094,1.349-1.653c0.157-0.199,0.263-0.211,0.462-0.049
					c2.169,1.767,3.48,4.026,3.933,6.787c0.043,0.261-0.04,0.324-0.279,0.371c-2.447,0.488-4.932,0.682-7.404,0.978
					C47.654,40.76,46.731,40.891,45.806,41.011L45.806,41.011z"/>
			</g>
			<path class="st0" d="M47.037,13.304c-0.046,0.058-0.137,0.049-0.17-0.018c-0.772-1.572-1.469-3.126-2.018-4.745
				c-0.074-0.218,0.053-0.284,0.173-0.382c1.918-1.565,4.059-2.721,6.416-3.47c2.829-0.899,5.708-1.171,8.623-0.525
				c4.454,0.987,7.65,3.628,9.7,7.65c1.874,3.678,2.368,7.592,1.743,11.66c-0.031,0.201-0.104,0.284-0.309,0.325
				c-1.668,0.336-3.356,0.495-5.05,0.614c0,0-0.001,0-0.001,0c-0.071,0.005-0.12-0.072-0.093-0.139
				c2.253-5.632,0.261-11.647-4.814-14.34C56.598,7.476,50.792,8.584,47.037,13.304z"/>
		</g>
	</g>
	<g>
		<g>
			<path class="st0" d="M51.727,42.407c1.748-0.193,3.462-0.369,5.19-0.71c3.114-0.613,6.005-1.701,8.369-3.919
				c1.298-1.218,2.373-2.62,3.396-4.066c0.081-0.114,0.145-0.197,0.317-0.19c1.984,0.082,3.837,0.562,5.453,1.772
				c0.126,0.094,0.248,0.194,0.401,0.316c0.032,0.025,0.021,0.076-0.018,0.087c-0.566,0.156-1.086,0.316-1.588,0.529
				c-1.677,0.712-3.123,1.726-4.109,3.287c-1.313,2.077-1.104,4.633,0.499,6.556c1.305,1.565,3,2.51,4.927,3.081
				c0.094,0.028,0.188,0.055,0.28,0.088c0.043,0.015,0.089,0.049,0.063,0.076c-0.546,0.521-1.186,0.901-1.86,1.221
				c-1.242,0.59-2.564,0.839-3.932,0.892c-0.226,0.009-0.3-0.122-0.397-0.259c-0.833-1.173-1.721-2.299-2.718-3.34
				c-2.014-2.105-4.491-3.392-7.271-4.153c-2.177-0.596-4.408-0.861-6.643-1.106c-0.122-0.013-0.242-0.033-0.364-0.05
				C51.638,42.505,51.653,42.408,51.727,42.407z"/>
			<path class="st0" d="M71.846,58.868c0.084,0.099-0.001,0.249-0.129,0.227c-2.751-0.488-5.444-0.545-8.112-0.84
				c-1.759-0.195-3.511-0.435-5.169-1.106c0,0-0.001,0-0.001-0.001c-0.101-0.041-0.115-0.176-0.027-0.241
				c2.87-2.099,4.485-4.897,4.852-8.437c0.011-0.108,0.138-0.161,0.224-0.094c1.045,0.81,1.859,1.734,2.631,2.7
				c1.452,1.814,2.697,3.776,4.059,5.654C70.692,57.444,71.229,58.143,71.846,58.868z"/>
			<path class="st0" d="M45.708,44.173c-0.095-0.123,0.009-0.3,0.163-0.276c0.358,0.054,0.708,0.109,1.06,0.15
				c2.34,0.272,4.681,0.529,7.02,0.811c0.705,0.085,1.402,0.24,2.106,0.342c0.251,0.036,0.314,0.123,0.274,0.375
				c-0.446,2.762-1.746,5.027-3.912,6.8c-0.204,0.167-0.3,0.127-0.461-0.056c-1.646-1.876-3.057-3.93-4.549-5.924
				C46.849,45.647,46.274,44.914,45.708,44.173L45.708,44.173z"/>
		</g>
		<path class="st0" d="M70.318,31.385c-0.073-0.011-0.111-0.094-0.07-0.156c0.975-1.454,1.972-2.835,3.1-4.12
			c0.152-0.173,0.273-0.096,0.417-0.041c2.314,0.879,4.386,2.154,6.213,3.821c2.193,2,3.868,4.358,4.766,7.206
			c1.372,4.351,0.683,8.44-1.775,12.226c-2.248,3.462-5.391,5.847-9.226,7.339c-0.189,0.074-0.298,0.052-0.436-0.105
			c-1.125-1.276-2.107-2.659-3.057-4.066c0,0-0.001-0.001-0.001-0.001c-0.04-0.06,0.003-0.14,0.073-0.15
			c6.004-0.865,10.217-5.597,10.011-11.339C80.146,36.751,76.283,32.277,70.318,31.385z"/>
	</g>
	<g>
		<g>
			<path class="st0" d="M34.373,42.542c-1.748,0.193-3.462,0.369-5.19,0.71c-3.114,0.613-6.005,1.701-8.369,3.919
				c-1.298,1.218-2.373,2.62-3.396,4.066c-0.081,0.114-0.145,0.197-0.317,0.19c-1.984-0.082-3.837-0.562-5.453-1.772
				c-0.126-0.094-0.248-0.194-0.401-0.316c-0.032-0.025-0.021-0.076,0.018-0.087c0.566-0.156,1.086-0.316,1.588-0.529
				c1.677-0.712,3.123-1.726,4.109-3.287c1.313-2.077,1.104-4.633-0.499-6.556c-1.305-1.565-3-2.51-4.927-3.081
				c-0.094-0.028-0.188-0.055-0.28-0.088c-0.043-0.015-0.089-0.049-0.063-0.076c0.546-0.521,1.186-0.901,1.86-1.221
				c1.242-0.59,2.564-0.839,3.932-0.892c0.226-0.009,0.3,0.122,0.397,0.259c0.833,1.173,1.721,2.299,2.718,3.34
				c2.014,2.105,4.491,3.392,7.271,4.153c2.177,0.596,4.408,0.861,6.643,1.106c0.122,0.013,0.242,0.033,0.364,0.05
				C34.462,42.443,34.447,42.54,34.373,42.542z"/>
			<path class="st0" d="M14.254,26.08c-0.084-0.099,0.001-0.249,0.129-0.227c2.751,0.488,5.444,0.545,8.112,0.84
				c1.759,0.195,3.511,0.435,5.169,1.106c0,0,0.001,0,0.001,0.001c0.101,0.041,0.115,0.176,0.027,0.241
				c-2.87,2.099-4.485,4.897-4.852,8.437c-0.011,0.108-0.138,0.161-0.224,0.094c-1.045-0.81-1.859-1.734-2.631-2.7
				c-1.452-1.814-2.697-3.776-4.059-5.654C15.408,27.505,14.871,26.806,14.254,26.08z"/>
			<path class="st0" d="M40.392,40.776c0.095,0.123-0.009,0.3-0.163,0.276c-0.358-0.054-0.708-0.109-1.06-0.15
				c-2.34-0.272-4.681-0.529-7.02-0.811c-0.705-0.085-1.402-0.24-2.106-0.342c-0.251-0.036-0.314-0.123-0.274-0.375
				c0.446-2.762,1.746-5.027,3.912-6.8c0.204-0.167,0.3-0.127,0.461,0.056c1.646,1.876,3.057,3.93,4.549,5.924
				C39.251,39.301,39.826,40.035,40.392,40.776L40.392,40.776z"/>
		</g>
		<path class="st0" d="M15.782,53.564c0.073,0.011,0.111,0.094,0.07,0.156c-0.975,1.454-1.972,2.835-3.1,4.12
			c-0.152,0.173-0.273,0.096-0.417,0.041c-2.314-0.879-4.386-2.154-6.213-3.821c-2.193-2-3.868-4.358-4.766-7.206
			c-1.372-4.351-0.683-8.44,1.775-12.226c2.248-3.462,5.391-5.847,9.226-7.339c0.189-0.074,0.298-0.052,0.436,0.105
			c1.125,1.276,2.107,2.659,3.057,4.066c0,0,0.001,0.001,0.001,0.001c0.04,0.06-0.003,0.14-0.073,0.15
			C9.774,32.476,5.561,37.209,5.767,42.951C5.954,48.198,9.817,52.672,15.782,53.564z"/>
	</g>
</g>
<g>
	<path class="st0" d="M99.272,39.492c0-1.05-0.56-1.541-1.54-1.541h-2.871v-5.811h6.511c3.081,0,4.48,1.33,4.48,3.92v1.33
		c0,1.12-0.07,2.03-0.07,2.03h0.14c1.681-4.13,6.581-8.121,12.111-8.121c6.021,0,9.451,2.73,10.641,8.051h0.14
		c1.96-4.271,6.861-8.051,12.602-8.051c7.98,0,11.691,4.55,11.691,13.581v15.332c0,1.05,0.56,1.54,1.541,1.54h2.87v5.811h-6.721
		c-3.15,0-4.48-1.33-4.48-4.48V46.353c0-4.971-0.98-8.891-6.23-8.891c-4.901,0-8.681,4.271-9.941,9.101
		c-0.35,1.47-0.56,3.01-0.56,4.83v16.172h-6.791V46.353c0-4.621-0.7-8.891-6.091-8.891c-5.181,0-8.821,4.34-10.151,9.38
		c-0.35,1.4-0.49,2.94-0.49,4.551v16.172h-6.791V39.492z"/>
	<path class="st0" d="M181.104,45.512h1.541v-0.35c0-6.23-2.311-8.471-7.841-8.471c-1.681,0-5.811,0.42-5.811,2.73v2.03h-6.371v-3.5
		c0-5.811,8.821-6.65,12.251-6.65c11.481,0,14.562,6.021,14.562,13.861v15.052c0,1.05,0.56,1.54,1.54,1.54h2.871v5.811h-6.371
		c-3.15,0-4.41-1.54-4.41-4.061c0-1.19,0.14-2.1,0.14-2.1h-0.14c0,0-2.8,7-11.271,7c-6.09,0-12.041-3.71-12.041-10.781
		C159.752,46.212,175.153,45.512,181.104,45.512z M173.263,62.944c5.741,0,9.451-6.021,9.451-11.271v-1.19h-1.75
		c-5.11,0-14.351,0.28-14.351,6.791C166.613,60.144,168.783,62.944,173.263,62.944z"/>
	<path class="st0" d="M199.441,39.492c0-1.05-0.56-1.541-1.54-1.541h-2.87v-5.811h6.511c3.011,0,4.48,1.33,4.48,3.92v1.33
		c0,1.12-0.14,2.03-0.14,2.03h0.14c1.4-3.08,5.601-8.121,13.302-8.121c8.4,0,12.181,4.55,12.181,13.581v15.332
		c0,1.05,0.561,1.54,1.54,1.54h2.871v5.811h-6.721c-3.15,0-4.48-1.33-4.48-4.48V46.422c0-4.97-0.98-8.891-6.651-8.891
		c-5.46,0-9.801,3.57-11.201,8.681c-0.489,1.4-0.63,3.011-0.63,4.761v16.592h-6.791V39.492z"/>
	<path class="st0" d="M254.183,31.301c8.19,0,10.921,5.46,10.921,5.46h0.141c0,0-0.141-1.05-0.141-2.38V25.49
		c0-1.05-0.56-1.541-1.54-1.541h-2.87v-5.811h6.721c3.15,0,4.48,1.33,4.48,4.48v37.594c0,1.05,0.56,1.54,1.54,1.54h2.87v5.811
		h-6.511c-3.08,0-4.34-1.4-4.34-3.78c0-1.05,0.069-1.82,0.069-1.82h-0.14c0,0-2.94,6.44-11.621,6.44
		c-9.591,0-15.612-7.561-15.612-18.552C238.15,38.582,244.802,31.301,254.183,31.301z M265.313,49.782
		c0-6.3-3.29-12.601-10.081-12.601c-5.53,0-10.15,4.621-10.15,12.671c0,7.701,4.13,12.671,10.011,12.671
		C260.343,62.523,265.313,58.813,265.313,49.782z"/>
	<path class="st0" d="M300.103,45.512h1.54v-0.35c0-6.23-2.31-8.471-7.841-8.471c-1.68,0-5.811,0.42-5.811,2.73v2.03h-6.37v-3.5
		c0-5.811,8.82-6.65,12.251-6.65c11.481,0,14.562,6.021,14.562,13.861v15.052c0,1.05,0.56,1.54,1.54,1.54h2.87v5.811h-6.37
		c-3.15,0-4.411-1.54-4.411-4.061c0-1.19,0.141-2.1,0.141-2.1h-0.141c0,0-2.8,7-11.271,7c-6.091,0-12.042-3.71-12.042-10.781
		C278.75,46.212,294.152,45.512,300.103,45.512z M292.262,62.944c5.74,0,9.451-6.021,9.451-11.271v-1.19h-1.75
		c-5.11,0-14.352,0.28-14.352,6.791C285.611,60.144,287.781,62.944,292.262,62.944z"/>
	<path class="st0" d="M318.3,25.49c0-1.05-0.56-1.541-1.54-1.541h-2.87v-5.811h6.721c3.15,0,4.48,1.33,4.48,4.48v37.594
		c0,1.05,0.56,1.54,1.54,1.54h2.87v5.811h-6.721c-3.15,0-4.48-1.33-4.48-4.48V25.49z"/>
	<path class="st0" d="M353.441,45.512h1.54v-0.35c0-6.23-2.31-8.471-7.841-8.471c-1.68,0-5.811,0.42-5.811,2.73v2.03h-6.37v-3.5
		c0-5.811,8.82-6.65,12.251-6.65c11.481,0,14.562,6.021,14.562,13.861v15.052c0,1.05,0.56,1.54,1.54,1.54h2.87v5.811h-6.37
		c-3.15,0-4.411-1.54-4.411-4.061c0-1.19,0.141-2.1,0.141-2.1h-0.141c0,0-2.8,7-11.271,7c-6.091,0-12.042-3.71-12.042-10.781
		C332.089,46.212,347.491,45.512,353.441,45.512z M345.601,62.944c5.741,0,9.451-6.021,9.451-11.271v-1.19h-1.75
		c-5.11,0-14.352,0.28-14.352,6.791C338.95,60.144,341.12,62.944,345.601,62.944z"/>
</g>
</svg>
