<?xml version="1.0" encoding="utf-8"?>
<!-- Generator: Adobe Illustrator 26.3.1, SVG Export Plug-In . SVG Version: 6.00 Build 0)  -->
<svg version="1.1" id="Layer_1" xmlns="http://www.w3.org/2000/svg" xmlns:xlink="http://www.w3.org/1999/xlink" x="0px" y="0px"
	 viewBox="0 0 2445 620" style="enable-background:new 0 0 2445 620;" xml:space="preserve">
<style type="text/css">
	.st0{fill:#005CD7;}
	.st1{opacity:0.2;enable-background:new    ;}
	.st2{fill:url(#SVGID_1_);}
	.st3{fill:url(#SVGID_00000083073936814159514060000011031061291953021353_);}
	.st4{fill:url(#SVGID_00000130638305391911949630000008741226697411290543_);}
	.st5{fill:#FFFFFF;}
</style>
<path class="st0" d="M352.3,497.4l-12.6,10.5l-124.1,99.9l-14.3,12l-7.5-5.5c0,0-91.9-73.9-137.9-110.8c-3.8-3.1-7.3-6-7.3-11
	c0.1-38.9-0.1-116.7-0.1-116.7v-1l15.6-11.5l89.3-71.7l11.5-9c-17.6,35.5-1.7,64.1,31.4,89.3C248.9,412.1,352.3,497.4,352.3,497.4
	L352.3,497.4z"/>
<path class="st1" d="M17.3,428.3L0,414.4l173.7-139.7l17.3,13.9L17.3,428.3z"/>
<linearGradient id="SVGID_1_" gradientUnits="userSpaceOnUse" x1="4882.9902" y1="1817.4465" x2="6114.9741" y2="1817.4465" gradientTransform="matrix(0.247 0 0 0.247 -853.0024 -271.4593)">
	<stop  offset="0" style="stop-color:#0048BD"/>
	<stop  offset="4.500000e-02" style="stop-color:#0049BF"/>
	<stop  offset="0.618" style="stop-color:#0059D4"/>
	<stop  offset="1" style="stop-color:#005FDB"/>
</linearGradient>
<path class="st2" d="M656.9,254.9L568,324.1l-27.2,22.5c14.3-25.8,10.7-54.1-14-74.4c-57.3-47.2-116-93.2-174.1-139.8
	c22.2-18.2,44.3-36.5,66.5-54.6c27.7-22.7,84.9-69.5,84.9-69.5l10.1,7.5c0,0,90,71.2,134.9,107.3c4.2,3.4,7.9,6.6,7.9,12
	C656.5,174.8,656.9,254.9,656.9,254.9L656.9,254.9z"/>
<path class="st1" d="M357.8,153.6l-17.3-13.9L514.2,0l17.3,13.9L357.8,153.6z"/>
<linearGradient id="SVGID_00000129911486155079045840000010658767269691754136_" gradientUnits="userSpaceOnUse" x1="3586.2615" y1="2563.113" x2="5079.0103" y2="784.1242" gradientTransform="matrix(0.247 0 0 0.247 -853.0024 -271.4593)">
	<stop  offset="0" style="stop-color:#00B9FF"/>
	<stop  offset="0.365" style="stop-color:#079FFF"/>
	<stop  offset="0.746" style="stop-color:#0D8AFF"/>
	<stop  offset="1" style="stop-color:#0F83FF"/>
</linearGradient>
<path style="fill:url(#SVGID_00000129911486155079045840000010658767269691754136_);" d="M48.5,374.8v-16.2c0,0,0.2-139.2-0.3-208.8
	c-0.1-13.4,4.5-23.3,17-33c43-33.2,84.7-67.5,126.8-101.5c5.4-4.4,10.7-7.1,19-7.1c93.4,0.2,280.2,0.2,280.2,0.2l12.9-0.1
	c0,0-129.2,105.9-151.3,124.1C290.9,181.6,64.1,363.3,64.1,363.3L48.5,374.8z"/>
<linearGradient id="SVGID_00000165204273225665135740000006816557991510363819_" gradientUnits="userSpaceOnUse" x1="4268.0264" y1="2870.0781" x2="6113.7754" y2="2870.0781" gradientTransform="matrix(0.247 0 0 0.247 -853.0024 -271.4593)">
	<stop  offset="0" style="stop-color:#00B9FF"/>
	<stop  offset="0.365" style="stop-color:#079FFF"/>
	<stop  offset="0.746" style="stop-color:#0D8AFF"/>
	<stop  offset="1" style="stop-color:#0F83FF"/>
</linearGradient>
<path style="fill:url(#SVGID_00000165204273225665135740000006816557991510363819_);" d="M656.9,254.9v15.6c0,0-0.1,144,0.2,216
	c0,7.6-2.4,13.2-9.3,18.7c-44.9,35.6-89.5,71.6-134,107.6c-5.4,4.3-10.6,7.2-19,7.2c-93.9-0.2-281.8-0.2-281.8-0.2h-11.8l14.3-12
	l124.1-99.9l12.6-10.5l10.6-8.5L511,370l29.9-23.4l27.2-22.5L656.9,254.9z"/>
<path class="st5" d="M996.3,176.8c23.1,13.2,41.2,31.4,54.6,54.7c13.3,23.3,20,49.7,20,79.2s-6.7,55.9-20.2,79.4s-31.7,41.8-54.8,55
	s-48.6,19.7-76.6,19.7s-53.6-6.6-76.6-19.7c-23.1-13.2-41.3-31.5-54.8-55c-13.4-23.5-20.2-50-20.2-79.4s6.7-55.8,20.2-79.2
	s31.7-41.6,54.8-54.7c23.1-13.2,48.6-19.8,76.6-19.8C947.6,157,973.2,163.6,996.3,176.8L996.3,176.8z M862.6,247.7
	c-14,15.4-21,36.5-21,63c0,26.3,7,47.3,21,62.8c14,15.6,32.9,23.3,56.7,23.3c23.5,0,42.3-7.8,56.5-23.3C990,357.9,997,337,997,310.7
	s-7-47.3-21-62.8c-14-15.6-32.9-23.3-56.7-23.3S876.6,232.3,862.6,247.7z M1449.1,163.8v298h-72.6V275.5L1312,461.9h-62.8
	l-64.9-186.8v186.8h-72.6v-298h88.7l81.1,207.6l79.4-207.6L1449.1,163.8z M1732.6,186.4c24.3,18.4,39.5,43.3,45.4,74.7h-76.8
	c-5.1-10.8-12.9-19.3-23.4-25.7s-23.1-9.6-37.8-9.6c-22.9,0-41.3,7.7-55.2,23.1s-20.8,36.3-20.8,62.6c0,28.6,7.3,50.5,21.9,65.8
	s35.3,22.9,62.2,22.9c17.3,0,32.4-4.7,45.4-14.2s22.2-23,27.6-40.5h-91.7v-52.2h152.4V365c-5.7,17.6-14.7,33.8-27.2,48.8
	s-28.4,27.2-47.8,36.5s-41.5,14-66.4,14c-30.3,0-56.7-6.4-79.4-19.3c-22.6-12.9-40.1-30.9-52.4-54.1s-18.5-49.7-18.5-79.4
	s6.1-56.2,18.5-79.4c12.3-23.2,29.7-41.2,52.2-54.1s48.7-19.3,78.8-19.3C1677.3,158.7,1708.3,168,1732.6,186.4L1732.6,186.4z
	 M2018.4,161.7v57.7h-123.1v65.8h95.1v55.2h-95.1v121.4h-72.6V161.7L2018.4,161.7z M2128.3,161.7v300.1h-72.6V161.7L2128.3,161.7z
	 M2445,461.9h-72.6L2251,277.6v184.3h-72.6V161.7h72.6l121.4,186v-186h72.6V461.9z"/>
</svg>
