<?xml version="1.0" encoding="utf-8"?>
<!-- Generator: Adobe Illustrator 26.3.1, SVG Export Plug-In . SVG Version: 6.00 Build 0)  -->
<svg version="1.1" id="Layer_1" xmlns="http://www.w3.org/2000/svg" xmlns:xlink="http://www.w3.org/1999/xlink" x="0px" y="0px"
	 viewBox="0 0 2500 2446" style="enable-background:new 0 0 2500 2446;" xml:space="preserve">
<style type="text/css">
	.st0{fill-rule:evenodd;clip-rule:evenodd;fill:#FFFFFF;}
</style>
<path id="a" class="st0" d="M1277.2,1250.2c40.8,0,71.3-34,71.3-71.3c0-37.4-30.6-71.3-71.3-71.3c-40.8,0-71.3,34-71.3,71.3
	C1205.8,1216.2,1236.4,1250.2,1277.2,1250.2z M1063.2,1053.2c40.8,0,71.3-34,71.3-71.3c0-40.8-30.6-71.3-71.3-71.3
	c-40.8,0-71.3,34-71.3,71.3C991.8,1022.6,1022.4,1053.2,1063.2,1053.2L1063.2,1053.2z M1277.2,1053.2c40.8,0,71.3-34,71.3-71.3
	c0-40.8-30.6-71.3-71.3-71.3c-40.8,0-71.3,34-71.3,71.3C1205.8,1022.6,1236.4,1053.2,1277.2,1053.2z M1491.2,1053.2
	c40.8,0,71.3-34,71.3-71.3c0-40.8-30.6-71.3-71.3-71.3c-40.8,0-71.3,34-71.3,71.3C1419.8,1022.6,1453.8,1053.2,1491.2,1053.2z
	 M1063.2,859.5c40.8,0,71.3-34,71.3-71.3c0-40.8-30.6-71.3-71.3-71.3c-40.8,0-71.3,34-71.3,71.3
	C991.8,829,1022.4,859.5,1063.2,859.5z M1277.2,859.5c40.8,0,71.3-34,71.3-71.3c0-40.8-30.6-71.3-71.3-71.3
	c-40.8,0-71.3,34-71.3,71.3C1205.8,829,1236.4,859.5,1277.2,859.5z M1491.2,859.5c40.8,0,71.3-34,71.3-71.3
	c0-40.8-30.6-71.3-71.3-71.3c-40.8,0-71.3,34-71.3,71.3C1419.8,829,1453.8,859.5,1491.2,859.5z M1277.2,665.9
	c40.8,0,71.3-34,71.3-71.3c0-40.8-30.6-71.3-71.3-71.3c-40.8,0-71.3,34-71.3,71.3C1205.8,632,1236.4,665.9,1277.2,665.9z
	 M1491.2,665.9c40.8,0,71.3-34,71.3-71.3c0-40.8-30.6-71.3-71.3-71.3c-40.8,0-71.3,34-71.3,71.3
	C1419.8,632,1453.8,665.9,1491.2,665.9z M1063.2,665.9c40.8,0,71.3-34,71.3-71.3c0-40.8-30.6-71.3-71.3-71.3
	c-40.8,0-71.3,34-71.3,71.3C991.8,632,1022.4,665.9,1063.2,665.9z M1250,2445.8L0,0.2h2500L1250,2445.8z"/>
</svg>
