<?xml version="1.0" encoding="utf-8"?>
<!-- Generator: Adobe Illustrator 26.3.1, SVG Export Plug-In . SVG Version: 6.00 Build 0)  -->
<svg version="1.1" id="Layer_1" xmlns="http://www.w3.org/2000/svg" xmlns:xlink="http://www.w3.org/1999/xlink" x="0px" y="0px"
	 viewBox="0 0 1768.6 344.9" style="enable-background:new 0 0 1768.6 344.9;" xml:space="preserve">
<style type="text/css">
	.st0{fill:#FFFFFF;}
	.st1{fill:url(#SVGID_1_);}
</style>
<g>
	<g>
		<path class="st0" d="M392.1,117.3h31.7v94.4h51.4v27h-83.1V117.3z M479,117.3h104.1v26.2h-36.4v95.3H515v-95.3h-36V117.3z
			 M653.8,116.4c37.6,0,65.6,26.3,65.6,61.5c0,35.5-28.1,62.2-65.6,62.2s-65.6-26.7-65.6-62.2C588.1,142.6,616.2,116.4,653.8,116.4z
			 M654.1,143.4c-18.2,0-33.4,14.9-33.4,34.6s15.4,35,33.4,35c18.2,0,32.7-15.2,32.7-35S672.3,143.4,654.1,143.4z M787.1,117.3H815
			l55.1,73.1v-73.1h29.4v121.4h-27.7L816.7,166v72.7h-29.6V117.3z M923.2,117.3h95.8v25.3h-64.1v22.7h57.8v25.1l-57.8,0.2v22.9h65.8
			v25.3h-97.5V117.3z M1029.6,117.3h104.1v26.2h-36.4v95.3h-31.7v-95.3h-36V117.3z M1134.4,117.3h34.1l23,87.8l22.9-87.8h31l23,87.8
			l22.9-87.8h32.6l-40,121.4h-32.7l-21.8-81.9l-22.5,81.9h-32.6L1134.4,117.3z M1392.2,116.4c37.6,0,65.6,26.3,65.6,61.5
			c0,35.5-28.1,62.2-65.6,62.2c-37.6,0-65.6-26.7-65.6-62.2C1326.6,142.6,1354.7,116.4,1392.2,116.4z M1392.6,143.4
			c-18.2,0-33.4,14.9-33.4,34.6s15.4,35,33.4,35c18.2,0,32.7-15.2,32.7-35S1410.8,143.4,1392.6,143.4z M1582.4,238.7h-35.9
			l-17.7-33.6h-23.6v33.6h-31.7V117.3h54.6c32.2,0,50.6,15.6,50.6,42.6c0,18.4-7.6,31.9-21.6,39.1L1582.4,238.7z M1505.3,142.6v37.2
			h23c12.8,0,20.3-6.6,20.3-18.9c0-12-7.4-18.4-20.3-18.4H1505.3z M1715.8,238.7h-37.9l-31.5-46.9l-15.6,17.3v29.6H1599V117.3h31.7
			v50.9l45.5-50.9h36.7l-45,50.2L1715.8,238.7z"/>
	</g>
	<linearGradient id="SVGID_1_" gradientUnits="userSpaceOnUse" x1="-134.3023" y1="163.7739" x2="389.0712" y2="163.7739">
		<stop  offset="0" style="stop-color:#F42922"/>
		<stop  offset="0.2942" style="stop-color:#00CDDD"/>
		<stop  offset="0.7997" style="stop-color:#9A1DB1"/>
	</linearGradient>
	<polygon class="st1" points="309.4,205 172.6,68.1 35.7,205 90.2,259.5 172.6,177.1 254.9,259.5 	"/>
</g>
</svg>
